<?xml version="1.0" encoding="utf-8"?>
<!-- Generator: Adobe Illustrator 24.2.3, SVG Export Plug-In . SVG Version: 6.00 Build 0)  -->
<svg version="1.1" id="Calque_1" focusable="false" xmlns="http://www.w3.org/2000/svg" xmlns:xlink="http://www.w3.org/1999/xlink"
	 x="0px" y="0px" viewBox="0 0 1134.6 1143" style="enable-background:new 0 0 1134.6 1143;" xml:space="preserve">
<style type="text/css">
	.st0{fill:#525251;}
</style>
<path class="st0" d="M358.3,445h416c8.8,0,16-7.2,16-16v-40c0-8.8-7.2-16-16-16h-416c-8.8,0-16,7.2-16,16v40
	C342.3,437.8,349.4,445,358.3,445z M358.3,605h416c8.8,0,16-7.2,16-16v-40c0-8.8-7.2-16-16-16h-416c-8.8,0-16,7.2-16,16v40
	C342.3,597.8,349.4,605,358.3,605z M358.3,765h416c8.8,0,16-7.2,16-16v-40c0-8.8-7.2-16-16-16h-416c-8.8,0-16,7.2-16,16v40
	C342.3,757.8,349.4,765,358.3,765z"/>
<path class="st0" d="M566.3,1105.4c-72.4,0-142.7-14.2-208.8-42.2c-63.9-27-121.3-65.7-170.5-115c-49.3-49.3-87.9-106.6-115-170.5
	c-28-66.2-42.2-136.4-42.2-208.8S44,426.2,72,360.1c27-63.9,65.7-121.3,115-170.5c49.3-49.3,106.6-87.9,170.5-115
	c66.2-28,136.4-42.2,208.8-42.2S709,46.6,775.1,74.6c63.9,27,121.3,65.7,170.5,115c49.3,49.3,87.9,106.6,115,170.5
	c28,66.2,42.2,136.4,42.2,208.8s-14.2,142.7-42.2,208.8c-27,63.9-65.7,121.3-115,170.5c-49.3,49.3-106.6,87.9-170.5,115
	C709,1091.3,638.7,1105.4,566.3,1105.4z M566.3,77.5c-66.4,0-130.7,13-191.3,38.6c-58.5,24.8-111.1,60.2-156.2,105.3
	s-80.6,97.7-105.3,156.2c-25.6,60.6-38.6,124.9-38.6,191.3c0,66.4,13,130.7,38.6,191.3c24.8,58.5,60.2,111.1,105.3,156.2
	c45.1,45.1,97.7,80.6,156.2,105.3c60.6,25.6,124.9,38.6,191.3,38.6s130.7-13,191.3-38.6c58.5-24.8,111.1-60.2,156.2-105.3
	c45.1-45.1,80.6-97.7,105.3-156.2c25.6-60.6,38.6-124.9,38.6-191.3s-13-130.7-38.6-191.3c-24.8-58.5-60.2-111.1-105.3-156.2
	s-97.7-80.6-156.2-105.3C697,90.5,632.6,77.5,566.3,77.5z"/>
</svg>
