<?xml version="1.0" encoding="utf-8"?>
<!-- Generator: Adobe Illustrator 24.2.3, SVG Export Plug-In . SVG Version: 6.00 Build 0)  -->
<svg version="1.1" id="Calque_1" focusable="false" xmlns="http://www.w3.org/2000/svg" xmlns:xlink="http://www.w3.org/1999/xlink"
	 x="0px" y="0px" viewBox="0 0 1140 1159.6" style="enable-background:new 0 0 1140 1159.6;" xml:space="preserve">
<style type="text/css">
	.st0{fill:#525251;}
</style>
<path class="st0" d="M914.5,619.6h-416c-26.5,0-48,21.5-48,48c0,26.5,21.5,48,48,48h416c26.5,0,48-21.5,48-48
	C962.5,641.1,941,619.6,914.5,619.6L914.5,619.6z M930.5,747.6h-448c-8.8,0-16,7.2-16,16v16c0,35.3,28.7,64,64,64h352
	c35.3,0,64-28.7,64-64v-16C946.5,754.8,939.3,747.6,930.5,747.6z M509.1,587.6h394.7c34.6,0,54.6-43.9,34.8-75.9
	c-40.2-64.9-128.6-116-232.2-116.1c-103.5,0.1-192,51.2-232.2,116.1C454.5,543.7,474.6,587.6,509.1,587.6z M834.5,475.6
	c8.8,0,16,7.2,16,16c0,8.8-7.2,16-16,16s-16-7.2-16-16C818.5,482.8,825.6,475.6,834.5,475.6z M706.5,443.6c8.8,0,16,7.2,16,16
	s-7.2,16-16,16c-8.8,0-16-7.2-16-16S697.6,443.6,706.5,443.6z M578.5,475.6c8.8,0,16,7.2,16,16c0,8.8-7.2,16-16,16
	c-8.8,0-16-7.2-16-16C562.5,482.8,569.6,475.6,578.5,475.6z"/>
<path class="st0" d="M379.5,801.6h-35V699.1c59.9-13.9,103.3-69.9,97.5-134.9l-14-155.8c-0.6-7.2-6.6-12.7-13.7-12.7H218.7
	c-7.1,0-13.1,5.5-13.7,12.7l-14,155.8c-5.8,65,37.6,121,97.5,134.9v102.5h-35c-19.3,0-35,15.7-35,35c0,3.9,3.1,7,7,7h182
	c3.9,0,7-3.1,7-7C414.5,817.3,398.8,801.6,379.5,801.6z"/>
<path class="st0" d="M567,1123c-72.4,0-142.7-14.2-208.8-42.2c-63.9-27-121.3-65.7-170.5-115c-49.3-49.3-87.9-106.6-115-170.5
	c-28-66.2-42.2-136.4-42.2-208.8s14.2-142.7,42.2-208.8c27-63.9,65.7-121.3,115-170.5c49.3-49.3,106.6-87.9,170.5-115
	c66.2-28,136.4-42.2,208.8-42.2s142.7,14.2,208.8,42.2c63.9,27,121.3,65.7,170.5,115c49.3,49.3,87.9,106.6,115,170.5
	c28,66.2,42.2,136.4,42.2,208.8s-14.2,142.7-42.2,208.8c-27,63.9-65.7,121.3-115,170.5c-49.3,49.3-106.6,87.9-170.5,115
	C709.7,1108.9,639.4,1123,567,1123z M567,95.1c-66.4,0-130.7,13-191.3,38.6c-58.5,24.8-111.1,60.2-156.2,105.3
	c-45.1,45.1-80.6,97.7-105.3,156.2c-25.6,60.6-38.6,124.9-38.6,191.3c0,66.4,13,130.7,38.6,191.3c24.8,58.5,60.2,111.1,105.3,156.2
	c45.1,45.1,97.7,80.6,156.2,105.3c60.6,25.6,124.9,38.6,191.3,38.6s130.7-13,191.3-38.6c58.5-24.8,111.1-60.2,156.2-105.3
	c45.1-45.1,80.6-97.7,105.3-156.2c25.6-60.6,38.6-124.9,38.6-191.3c0-66.4-13-130.7-38.6-191.3c-24.8-58.5-60.2-111.1-105.3-156.2
	c-45.1-45.1-97.7-80.6-156.2-105.3C697.7,108.1,633.3,95.1,567,95.1z"/>
</svg>
