<?xml version="1.0" encoding="utf-8"?>
<!-- Generator: Adobe Illustrator 24.2.3, SVG Export Plug-In . SVG Version: 6.00 Build 0)  -->
<svg version="1.1" id="Calque_1" focusable="false" xmlns="http://www.w3.org/2000/svg" xmlns:xlink="http://www.w3.org/1999/xlink"
	 x="0px" y="0px" viewBox="0 0 1230.2 1157.8" style="enable-background:new 0 0 1230.2 1157.8;" xml:space="preserve">
<style type="text/css">
	.st0{fill:#525251;}
</style>
<path class="st0" d="M746.7,382.9c63,45,104,118.6,104,201.9c0,136.8-110.8,247.7-247.5,248c-136.5,0.3-248.3-111-248.5-247.6
	c-0.1-83.3,40.9-157.1,103.8-202.2c11.7-8.3,28-4.8,35,7.7l15.8,28.1c5.9,10.5,3.1,23.8-6.6,31c-41.5,30.8-68,79.6-68,134.9
	c-0.1,92.3,74.5,168.1,168,168.1c91.6,0,168.6-74.2,168-169.1c-0.3-51.8-24.7-101.8-68.1-134c-9.7-7.2-12.4-20.5-6.5-30.9l15.8-28.1
	C718.9,378.3,735.1,374.6,746.7,382.9L746.7,382.9z M642.7,592.8v-240c0-13.3-10.7-24-24-24h-32c-13.3,0-24,10.7-24,24v240
	c0,13.3,10.7,24,24,24h32C632,616.8,642.7,606.1,642.7,592.8z"/>
<path class="st0" d="M602.7,1117.3c-72.4,0-142.7-14.2-208.8-42.2c-63.9-27-121.3-65.7-170.5-115c-49.3-49.3-87.9-106.6-115-170.5
	c-28-66.2-42.2-136.4-42.2-208.8S80.4,438.2,108.4,372c27-63.9,65.7-121.3,115-170.5c49.3-49.3,106.6-87.9,170.5-115
	c66.2-28,136.4-42.2,208.8-42.2s142.7,14.2,208.8,42.2c63.9,27,121.3,65.7,170.5,115c49.3,49.3,87.9,106.6,115,170.5
	c28,66.2,42.2,136.4,42.2,208.8S1125,723.5,1097,789.7c-27,63.9-65.7,121.3-115,170.5c-49.3,49.3-106.6,87.9-170.5,115
	C745.4,1103.1,675.1,1117.3,602.7,1117.3z M602.7,89.4c-66.4,0-130.7,13-191.3,38.6c-58.5,24.8-111.1,60.2-156.2,105.3
	C210,278.5,174.6,331,149.8,389.5c-25.6,60.6-38.6,124.9-38.6,191.3c0,66.4,13,130.7,38.6,191.3c24.8,58.5,60.2,111.1,105.3,156.2
	c45.1,45.1,97.7,80.6,156.2,105.3c60.6,25.6,124.9,38.6,191.3,38.6s130.7-13,191.3-38.6c58.5-24.8,111.1-60.2,156.2-105.3
	c45.1-45.1,80.6-97.7,105.3-156.2c25.6-60.6,38.6-124.9,38.6-191.3c0-66.4-13-130.7-38.6-191.3c-24.8-58.5-60.2-111.1-105.3-156.2
	C905.1,188.2,852.5,152.7,794,128C733.4,102.4,669,89.4,602.7,89.4z"/>
</svg>
