<?xml version="1.0" encoding="utf-8"?>
<!-- Generator: Adobe Illustrator 24.2.3, SVG Export Plug-In . SVG Version: 6.00 Build 0)  -->
<svg version="1.1" id="Calque_1" focusable="false" xmlns="http://www.w3.org/2000/svg" xmlns:xlink="http://www.w3.org/1999/xlink"
	 x="0px" y="0px" viewBox="0 0 1168.7 1174" style="enable-background:new 0 0 1168.7 1174;" xml:space="preserve">
<style type="text/css">
	.st0{fill:#525251;}
</style>
<path class="st0" d="M882.4,539.5h-192c-8.8,0-16,7.2-16,16v32c0,8.8,7.2,16,16,16h192c8.8,0,16-7.2,16-16v-32
	C898.4,546.7,891.2,539.5,882.4,539.5z M482.4,587.5c70.7,0,128-57.3,128-128s-57.3-128-128-128s-128,57.3-128,128
	S411.7,587.5,482.4,587.5z M572,619.5h-16.7c-22.2,10.2-46.9,16-72.9,16s-50.6-5.8-72.9-16h-16.7c-74.2,0-134.4,60.2-134.4,134.4
	v41.6c0,26.5,21.5,48,48,48h352c26.5,0,48-21.5,48-48v-41.6C706.4,679.7,646.2,619.5,572,619.5z"/>
<path class="st0" d="M578.4,1123.9c-72.4,0-142.7-14.2-208.8-42.2c-63.9-27-121.3-65.7-170.5-115c-49.3-49.3-87.9-106.6-115-170.5
	C56.2,730.1,42,659.9,42,587.5s14.2-142.7,42.2-208.8c27-63.9,65.7-121.3,115-170.5c49.3-49.3,106.6-87.9,170.5-115
	C435.8,65.2,506,51,578.4,51s142.7,14.2,208.8,42.2c63.9,27,121.3,65.7,170.5,115c49.3,49.3,87.9,106.6,115,170.5
	c28,66.2,42.2,136.4,42.2,208.8s-14.2,142.7-42.2,208.8c-27,63.9-65.7,121.3-115,170.5c-49.3,49.3-106.6,87.9-170.5,115
	C721.1,1109.7,650.9,1123.9,578.4,1123.9z M578.4,96c-66.4,0-130.7,13-191.3,38.6c-58.5,24.8-111.1,60.2-156.2,105.3
	c-45.1,45.1-80.6,97.7-105.3,156.2C100,456.7,87,521.1,87,587.5c0,66.4,13,130.7,38.6,191.3c24.8,58.5,60.2,111.1,105.3,156.2
	c45.1,45.1,97.7,80.6,156.2,105.3c60.6,25.6,124.9,38.6,191.3,38.6s130.7-13,191.3-38.6c58.5-24.8,111.1-60.2,156.2-105.3
	c45.1-45.1,80.6-97.7,105.3-156.2c25.6-60.6,38.6-124.9,38.6-191.3c0-66.4-13-130.7-38.6-191.3c-24.8-58.5-60.2-111.1-105.3-156.2
	c-45.1-45.1-97.7-80.6-156.2-105.3C709.2,109,644.8,96,578.4,96z"/>
</svg>
