<?xml version="1.0" encoding="utf-8"?>
<!-- Generator: Adobe Illustrator 24.2.3, SVG Export Plug-In . SVG Version: 6.00 Build 0)  -->
<svg version="1.1" id="Calque_1" focusable="false" xmlns="http://www.w3.org/2000/svg" xmlns:xlink="http://www.w3.org/1999/xlink"
	 x="0px" y="0px" viewBox="0 0 1188 1177.3" style="enable-background:new 0 0 1188 1177.3;" xml:space="preserve">
<style type="text/css">
	.st0{fill:#525251;}
</style>
<path class="st0" d="M898.3,543.2h-64v-64c0-8.8-7.2-16-16-16h-32c-8.8,0-16,7.2-16,16v64h-64c-8.8,0-16,7.2-16,16v32
	c0,8.8,7.2,16,16,16h64v64c0,8.8,7.2,16,16,16h32c8.8,0,16-7.2,16-16v-64h64c8.8,0,16-7.2,16-16v-32
	C914.3,550.4,907.1,543.2,898.3,543.2z M498.3,591.2c70.7,0,128-57.3,128-128s-57.3-128-128-128s-128,57.3-128,128
	S427.6,591.2,498.3,591.2z M587.9,623.2h-16.7c-22.2,10.2-46.9,16-72.9,16c-26,0-50.6-5.8-72.9-16h-16.7
	c-74.2,0-134.4,60.2-134.4,134.4v41.6c0,26.5,21.5,48,48,48h352c26.5,0,48-21.5,48-48v-41.6C722.3,683.4,662.1,623.2,587.9,623.2z"
	/>
<path class="st0" d="M594.3,1127.7c-72.4,0-142.7-14.2-208.8-42.2c-63.9-27-121.3-65.7-170.5-115c-49.3-49.3-87.9-106.6-115-170.5
	c-28-66.2-42.2-136.4-42.2-208.8S72.1,448.5,100,382.4c27-63.9,65.7-121.3,115-170.5c49.3-49.3,106.6-87.9,170.5-115
	c66.2-28,136.4-42.2,208.8-42.2S737,68.9,803.2,96.9c63.9,27,121.3,65.7,170.5,115c49.3,49.3,87.9,106.6,115,170.5
	c28,66.2,42.2,136.4,42.2,208.8s-14.2,142.7-42.2,208.8c-27,63.9-65.7,121.3-115,170.5c-49.3,49.3-106.6,87.9-170.5,115
	C737,1113.5,666.7,1127.7,594.3,1127.7z M594.3,99.7c-66.4,0-130.7,13-191.3,38.6c-58.5,24.8-111.1,60.2-156.2,105.3
	c-45.1,45.1-80.6,97.7-105.3,156.2c-25.6,60.6-38.6,124.9-38.6,191.3c0,66.4,13,130.7,38.6,191.3c24.8,58.5,60.2,111.1,105.3,156.2
	c45.1,45.1,97.7,80.6,156.2,105.3c60.6,25.6,124.9,38.6,191.3,38.6s130.7-13,191.3-38.6c58.5-24.8,111.1-60.2,156.2-105.3
	c45.1-45.1,80.6-97.7,105.3-156.2c25.6-60.6,38.6-124.9,38.6-191.3c0-66.4-13-130.7-38.6-191.3c-24.8-58.5-60.2-111.1-105.3-156.2
	c-45.1-45.1-97.7-80.6-156.2-105.3C725.1,112.7,660.7,99.7,594.3,99.7z"/>
</svg>
