<?xml version="1.0" encoding="utf-8"?>
<!-- Generator: Adobe Illustrator 24.2.3, SVG Export Plug-In . SVG Version: 6.00 Build 0)  -->
<svg version="1.1" id="Calque_1" focusable="false" xmlns="http://www.w3.org/2000/svg" xmlns:xlink="http://www.w3.org/1999/xlink"
	 x="0px" y="0px" viewBox="0 0 1150.9 1172" style="enable-background:new 0 0 1150.9 1172;" xml:space="preserve">
<style type="text/css">
	.st0{fill:#525251;}
</style>
<path class="st0" d="M577.7,584.7c70.7,0,128-57.3,128-128s-57.3-128-128-128s-128,57.3-128,128S507,584.7,577.7,584.7z
	 M667.3,616.7h-16.7c-22.2,10.2-46.9,16-72.9,16s-50.6-5.8-72.9-16h-16.7c-74.2,0-134.4,60.2-134.4,134.4v41.6c0,26.5,21.5,48,48,48
	h352c26.5,0,48-21.5,48-48v-41.6C801.7,676.9,741.5,616.7,667.3,616.7z"/>
<path class="st0" d="M577.7,1121.1c-72.4,0-142.7-14.2-208.8-42.2c-63.9-27-121.3-65.7-170.5-115c-49.3-49.3-87.9-106.6-115-170.5
	c-28-66.2-42.2-136.4-42.2-208.8S55.4,442,83.4,375.8c27-63.9,65.7-121.3,115-170.5c49.3-49.3,106.6-87.9,170.5-115
	c66.2-28,136.4-42.2,208.8-42.2s142.7,14.2,208.8,42.2c63.9,27,121.3,65.7,170.5,115c49.3,49.3,87.9,106.6,115,170.5
	c28,66.2,42.2,136.4,42.2,208.8s-14.2,142.7-42.2,208.8c-27,63.9-65.7,121.3-115,170.5c-49.3,49.3-106.6,87.9-170.5,115
	C720.3,1107,650.1,1121.1,577.7,1121.1z M577.7,93.2c-66.4,0-130.7,13-191.3,38.6c-58.5,24.8-111.1,60.2-156.2,105.3
	c-45.1,45.1-80.6,97.7-105.3,156.2C99.2,454,86.2,518.3,86.2,584.7c0,66.4,13,130.7,38.6,191.3C149.6,834.5,185,887,230.1,932.2
	c45.1,45.1,97.7,80.6,156.2,105.3c60.6,25.6,124.9,38.6,191.3,38.6s130.7-13,191.3-38.6c58.5-24.8,111.1-60.2,156.2-105.3
	c45.1-45.1,80.6-97.7,105.3-156.2c25.6-60.6,38.6-124.9,38.6-191.3c0-66.4-13-130.7-38.6-191.3c-24.8-58.5-60.2-111.1-105.3-156.2
	C880,192,827.5,156.6,769,131.8C708.4,106.2,644,93.2,577.7,93.2z"/>
</svg>
