<?xml version="1.0" encoding="utf-8"?>
<!-- Generator: Adobe Illustrator 24.2.3, SVG Export Plug-In . SVG Version: 6.00 Build 0)  -->
<svg version="1.1" id="Calque_1" focusable="false" xmlns="http://www.w3.org/2000/svg" xmlns:xlink="http://www.w3.org/1999/xlink"
	 x="0px" y="0px" viewBox="0 0 1199.1 1206.2" style="enable-background:new 0 0 1199.1 1206.2;" xml:space="preserve">
<style type="text/css">
	.st0{fill:#525251;}
</style>
<path class="st0" d="M589.9,358.7c0.8,4.7,16.1,94.5,16.1,128.8c0,52.3-27.8,89.6-68.9,104.6L550,830.2c0.7,13.7-10.2,25.3-24,25.3
	h-64c-13.7,0-24.7-11.5-24-25.3l12.9-238.1c-41.2-15-68.9-52.4-68.9-104.6c0-34.4,15.3-124.1,16.1-128.8
	c3.2-20.3,45.3-20.6,47.9,1.1V501c1.3,3.4,15.1,3.2,16,0c1.4-25.3,7.9-139.2,8-141.8c3.3-20.8,44.7-20.8,47.9,0
	c0.2,2.7,6.6,116.5,8,141.8c0.9,3.2,14.8,3.4,16,0V359.8C544.5,338.2,586.7,338.4,589.9,358.7z M709.1,644.4l-15,185.1
	c-1.2,14,9.9,26,23.9,26h56c13.3,0,24-10.7,24-24v-464c0-13.2-10.7-24-24-24C691.5,343.5,552.6,522,709.1,644.4L709.1,644.4z"/>
<path class="st0" d="M590,1136c-72.4,0-142.7-14.2-208.8-42.2c-63.9-27-121.3-65.7-170.5-115c-49.3-49.3-87.9-106.6-115-170.5
	c-28-66.2-42.2-136.4-42.2-208.8s14.2-142.7,42.2-208.8c27-63.9,65.7-121.3,115-170.5c49.3-49.3,106.6-87.9,170.5-115
	C447.4,77.2,517.6,63,590,63s142.7,14.2,208.8,42.2c63.9,27,121.3,65.7,170.5,115c49.3,49.3,87.9,106.6,115,170.5
	c28,66.2,42.2,136.4,42.2,208.8s-14.2,142.7-42.2,208.8c-27,63.9-65.7,121.3-115,170.5c-49.3,49.3-106.6,87.9-170.5,115
	C732.7,1121.8,662.4,1136,590,1136z M590,108c-66.4,0-130.7,13-191.3,38.6c-58.5,24.8-111.1,60.2-156.2,105.3
	c-45.1,45.1-80.6,97.7-105.3,156.2c-25.6,60.6-38.6,124.9-38.6,191.3c0,66.4,13,130.7,38.6,191.3c24.8,58.5,60.2,111.1,105.3,156.2
	c45.1,45.1,97.7,80.6,156.2,105.3C459.3,1078,523.7,1091,590,1091s130.7-13,191.3-38.6c58.5-24.8,111.1-60.2,156.2-105.3
	c45.1-45.1,80.6-97.7,105.3-156.2c25.6-60.6,38.6-124.9,38.6-191.3c0-66.4-13-130.7-38.6-191.3c-24.8-58.5-60.2-111.1-105.3-156.2
	c-45.1-45.1-97.7-80.6-156.2-105.3C720.8,121,656.4,108,590,108z"/>
</svg>
